<?xml version="1.0" encoding="utf-8"?>
<!-- Generator: Adobe Illustrator 19.1.0, SVG Export Plug-In . SVG Version: 6.00 Build 0)  -->
<svg version="1.1" id="Layer_1" xmlns="http://www.w3.org/2000/svg" xmlns:xlink="http://www.w3.org/1999/xlink" x="0px" y="0px"
	 viewBox="0 0 173.7 26.7" style="enable-background:new 0 0 173.7 26.7;" xml:space="preserve">
<style type="text/css">
	.st0{fill:#FFFFFF;}
</style>
<g id="XMLID_375_">
	<g id="XMLID_377_">
		<path id="XMLID_408_" class="st0" d="M59.3,14.9c0-3.2,0-6.4,0-9.6c0.9,0,1.6,0,2.4,0c0,5.9,0,11.8,0,17.7
			c-1.5,0.4-2.3,0.1-2.7-1.5c-0.9-3.1-2.1-6.1-3.4-9.1c0,3.5,0,7,0,10.6c-1,0-1.7,0-2.6,0c0-5.9,0-11.7,0-17.6
			c2.5-0.6,2.6-0.5,3.3,1.7c0.9,2.6,1.8,5.2,2.7,7.8C59.1,14.9,59.2,14.9,59.3,14.9z"/>
		<path id="XMLID_405_" class="st0" d="M82.6,23c-0.9,0-1.6,0-2.5,0c0-5.9,0-11.7,0-17.8c2.2,0,4.4-0.1,6.7,0c1.2,0.1,2,1.1,2.1,2.3
			c0.1,2,0.2,4,0,5.9c-0.1,0.9-0.9,1.7-1.4,2.5c-0.2-0.1-0.3-0.1-0.5-0.2c0.6,2.4,1.3,4.7,1.9,7.2c-0.9,0-1.7,0-2.6,0
			c-0.5-2.3-1.1-4.6-1.7-7c-0.6,0-1.2,0-2,0C82.6,18.3,82.6,20.6,82.6,23z M82.7,7.6c0,2.1,0,4,0,5.8c1.3,0,2.4,0,3.6,0
			c0-2,0-3.9,0-5.8C85,7.6,83.9,7.6,82.7,7.6z"/>
		<path id="XMLID_399_" class="st0" d="M109,5.2c2.1,0,4.2,0,6.2,0c1.5,0,2.4,1,2.4,2.4c0,4.3,0,8.6,0,12.9c0,1.5-0.9,2.4-2.4,2.5
			c-2,0.1-4.1,0-6.2,0C109,17.1,109,11.3,109,5.2z M111.4,20.6c1.3,0,2.5,0,3.7,0c0-4.4,0-8.6,0-12.9c-1.3,0-2.5,0-3.7,0
			C111.4,12.1,111.4,16.3,111.4,20.6z"/>
		<path id="XMLID_396_" class="st0" d="M100.6,14c0,2,0,4.1,0,6.1c0,2.1-0.9,2.9-3,2.9c-1,0-2.1,0-3.1,0c-1.6-0.1-2.6-1-2.6-2.6
			c0-4.2,0-8.4,0-12.7c0-1.6,0.9-2.5,2.5-2.6c1.2-0.1,2.5-0.1,3.7,0c1.6,0.1,2.5,1,2.5,2.5C100.7,9.8,100.6,11.9,100.6,14z
			 M94.4,7.6c0,4.4,0,8.7,0,13c1.3,0,2.4,0,3.7,0c0-4.4,0-8.6,0-13C96.8,7.6,95.7,7.6,94.4,7.6z"/>
		<path id="XMLID_395_" class="st0" d="M128.5,20.6c1.3,0,2.4,0,3.7,0c0-1.4,0-2.8,0-4.3c-0.5-0.1-1-0.1-1.7-0.2c0-0.7,0-1.4,0-2.2
			c1.4,0,2.7,0,4.3,0c0,2.4,0.1,4.7,0,7.1c-0.1,1.3-1.1,2-2.4,2.1c-1.3,0.1-2.6,0.1-3.9,0c-1.5-0.1-2.5-1.1-2.5-2.6
			c0-4.2,0-8.4,0-12.7c0-1.6,1-2.6,2.6-2.6c1,0,2.1,0,3.1,0c2.1,0,3.1,0.9,3.1,3.1c0,0.6,0,1.2,0,1.9c-0.9,0-1.6,0-2.5,0
			c0-0.8-0.1-1.6-0.1-2.5c-1.3,0-2.4,0-3.7,0C128.5,12,128.5,16.3,128.5,20.6z"/>
		<path id="XMLID_388_" class="st0" d="M156.2,5.3c3.1-0.3,3.1-0.3,3.7,2.6c1.1,5,2.1,10,3.2,15.1c-0.9,0-1.7,0-2.6,0
			c-0.2-0.7-0.3-1.5-0.6-2.6c-1.2,0-2.5-0.1-3.7,0c-0.3,0-0.7,0.5-0.8,0.8c-0.2,0.5-0.3,1.1-0.4,1.8c-0.9,0-1.7,0-2.6,0
			C153.7,17.1,155,11.2,156.2,5.3z M158,10.4c-0.1,0-0.2,0-0.3,0c-0.5,2.5-1.1,5-1.6,7.6c1.2,0,2.3,0,3.4,0
			C159,15.4,158.5,12.9,158,10.4z"/>
		<path id="XMLID_385_" class="st0" d="M44,5.2c1.1,0,2,0,3.2,0c1.2,5.9,2.5,11.7,3.8,17.7c-0.9,0-1.6,0-2.5,0
			c-0.3-0.8-0.4-2.3-0.9-2.4c-1.3-0.3-2.7-0.1-4.2-0.1c-0.2,0.8-0.4,1.6-0.6,2.5c-0.8,0-1.6,0-2.6,0C41.5,17.1,42.7,11.2,44,5.2z
			 M45.7,10.3c-0.1,0-0.2,0-0.3,0c-0.5,2.5-1.1,5-1.6,7.6c1.2,0,2.2,0,3.4,0C46.7,15.3,46.2,12.8,45.7,10.3z"/>
		<path id="XMLID_384_" class="st0" d="M72.1,7.6c-1.6,0-3.2,0-4.8,0c0,1.7,0,3.3,0,5c1.1,0,2.3,0,3.6,0c0,0.8,0,1.5,0,2.4
			c-1.1,0-2.3,0-3.6,0c0,1.9,0,3.7,0,5.7c1.6,0,3.2,0,4.9,0c0,0.9,0,1.5,0,2.3c-2.4,0-4.8,0-7.3,0c0-5.9,0-11.7,0-17.7
			c2.4,0,4.8,0,7.3,0C72.1,6,72.1,6.7,72.1,7.6z"/>
		<path id="XMLID_383_" class="st0" d="M35.7,5.3c1,0,1.6,0,2.5,0c0,1.5,0,2.9,0,4.3c0,3.4,0,6.7,0,10.1c0,2.6-0.8,3.4-3.5,3.4
			c-0.2,0-0.5,0-0.7,0c-3.1,0.3-4.5-0.9-3.9-4.9c0.7,0,1.5,0,2.4,0c0,0.8,0.1,1.5,0.1,2.4c1,0,2,0,3.1,0
			C35.7,15.5,35.7,10.5,35.7,5.3z"/>
		<path id="XMLID_382_" class="st0" d="M151.1,5.3c0,0.7,0,1.4,0,2.2c-1,0-2,0-3.1,0c0,5.2,0,10.3,0,15.5c-0.9,0-1.6,0-2.5,0
			c0-5.1,0-10.2,0-15.4c-1.2,0-2.1,0-3.2,0c0-0.8,0-1.5,0-2.3C145.2,5.3,148.1,5.3,151.1,5.3z"/>
		<path id="XMLID_381_" class="st0" d="M167.6,20.8c1.8,0,3.4,0,5.1,0c0,0.8,0,1.5,0,2.2c-2.4,0-4.8,0-7.3,0c0-5.9,0-11.7,0-17.7
			c0.7,0,1.4,0,2.3,0C167.6,10.4,167.6,15.4,167.6,20.8z"/>
		<path id="XMLID_380_" class="st0" d="M120.7,5.3c0.8,0,1.6,0,2.4,0c0,5.9,0,11.8,0,17.7c-0.8,0-1.5,0-2.4,0
			C120.7,17.1,120.7,11.3,120.7,5.3z"/>
		<path id="XMLID_379_" class="st0" d="M137.8,5.3c0.8,0,1.5,0,2.2,0c0,5.9,0,11.8,0,17.7c-0.7,0-1.4,0-2.2,0
			C137.8,17.1,137.8,11.3,137.8,5.3z"/>
		<path id="XMLID_378_" class="st0" d="M75,23c0-6,0-11.8,0-17.7c0.8,0,1.4,0,2.2,0c0,5.9,0,11.7,0,17.7C76.5,23,75.8,23,75,23z"/>
	</g>
	<g id="XMLID_376_">
		<polygon class="st0" points="1.7,7.4 12.2,1.3 22.8,7.4 22.8,19.6 12.2,25.7 1.7,19.6 		"/>
	</g>
</g>
</svg>
